<svg id="Layer_1" style="enable-background:new 0 0 117.41 54.06;" version="1.1" x="0px" xml:space="preserve" xmlns="http://www.w3.org/2000/svg" xmlns:xlink="http://www.w3.org/1999/xlink" y="0px" viewBox="14.55 15.43 28.22 23.86"><style type="text/css"> /**/ .st0{fill:#FFFFFF;} .st1{fill:#FFFFFF;stroke:#303030;stroke-width:0.7005;stroke-miterlimit:10;} .st2{fill:#891D1C;}  /**/ </style><path class="st1" d="M42.32,38.93H33.5l0.08-9.78c-1.2,1.83-4.59,6.89-4.59,6.89l-0.63,0.01c0,0-3.41-5.07-4.61-6.89l0.08,9.78 &#9;h-8.82l-0.02-5.76h1.19l-0.09-11.43h-1.16l-0.03-5.97h8.19l5.57,9.03l5.57-9.03h8.19l-0.03,5.97h-1.16l-0.09,11.43h1.19L42.32,38.93 &#9;z"/><path class="st2" d="M34.85,37.59h6.13l0.01-3.08H39.8l0.11-14.11h1.15l0.02-3.28h-6.09l-6.32,10.25l-6.32-10.25h-6.09l0.02,3.28 &#9;h1.15l0.11,14.11h-1.19l0.01,3.08h6.13l-0.1-13l1.25,1.92c1.3,2,2.99,4.55,5.04,7.6c2.04-3.05,3.74-5.6,5.04-7.6l1.25-1.92 &#9;L34.85,37.59z"/></svg>