<svg xmlns="http://www.w3.org/2000/svg" xmlns:xlink="http://www.w3.org/1999/xlink" id="Layer_1" style="enable-background:new 0 0 117.41 54.06;" version="1.1" x="0px" xml:space="preserve" y="0px" viewBox="14.55 15.43 91.32 23.86"><style type="text/css">
/**/
.st0{fill:#FFFFFF;} .st1{fill:#FFFFFF;stroke:#303030;stroke-width:0.7005;stroke-miterlimit:10;} .st2{fill:#891D1C;}

/**/
</style><g><g><path class="st0" d="M53.94,15.8c-0.65,0.04-0.91,0.2-0.96,0.64c-0.03,0.29-0.05,0.76-0.05,1.77v0.91c0,1.29-0.2,2.21-0.83,2.88    c-0.5,0.52-1.23,0.75-1.95,0.75c-0.63,0-1.27-0.15-1.75-0.52c-0.65-0.5-0.96-1.32-0.96-2.6V16.9c0-0.98-0.09-1.03-0.95-1.1v-0.31    h2.83v0.31c-0.86,0.05-0.95,0.12-0.95,1.1v2.49c0,1.76,0.7,2.76,2.05,2.76c1.57,0,2.06-1.31,2.06-3.11v-0.83    c0-1-0.03-1.46-0.08-1.8c-0.07-0.43-0.29-0.56-1.06-0.61v-0.31h2.6C53.94,15.49,53.94,15.8,53.94,15.8z"/></g><g><path class="st0" d="M56.83,22.59V22.3c0.64-0.07,0.72-0.15,0.72-0.91v-1.82c0-0.75-0.26-1.24-0.99-1.24    c-0.44,0-0.86,0.27-1.19,0.56v2.56c0,0.74,0.07,0.79,0.71,0.85v0.28h-2.37V22.3c0.74-0.08,0.8-0.13,0.8-0.85v-2.26    c0-0.7-0.07-0.73-0.65-0.84V18.1c0.52-0.1,1.04-0.23,1.52-0.45v0.87c0.22-0.16,0.46-0.33,0.73-0.51c0.31-0.2,0.59-0.33,0.91-0.33    c0.86,0,1.41,0.6,1.41,1.66v2.11c0,0.74,0.05,0.79,0.69,0.85v0.28L56.83,22.59L56.83,22.59z"/></g><g><path class="st0" d="M59.6,22.59V22.3c0.69-0.07,0.76-0.13,0.76-0.87v-2.25c0-0.68-0.03-0.72-0.69-0.83v-0.26    c0.56-0.09,1.07-0.23,1.55-0.43v3.76c0,0.74,0.08,0.81,0.77,0.87v0.28H59.6V22.59z M60.18,16.18c0-0.33,0.26-0.57,0.56-0.57    c0.31,0,0.55,0.24,0.55,0.57c0,0.29-0.24,0.56-0.56,0.56C60.44,16.74,60.18,16.48,60.18,16.18z"/></g><g><path class="st0" d="M67.08,18.09c-0.57,0.08-0.67,0.17-0.96,0.83c-0.36,0.82-0.94,2.16-1.54,3.79h-0.29    c-0.49-1.31-0.99-2.55-1.51-3.82c-0.25-0.63-0.34-0.71-0.93-0.8v-0.27h2.24v0.27c-0.59,0.08-0.61,0.16-0.44,0.63    c0.28,0.76,0.72,1.91,1.04,2.69c0.38-0.91,0.73-1.9,0.97-2.61c0.16-0.52,0.1-0.64-0.52-0.72v-0.27h1.94    C67.08,17.81,67.08,18.09,67.08,18.09z"/></g><g><path class="st0" d="M70.71,21.66c-0.69,0.86-1.44,1.06-1.78,1.06c-1.34,0-2.13-1.09-2.13-2.32c0-0.75,0.27-1.42,0.72-1.91    c0.45-0.5,1.04-0.8,1.6-0.8c0.91,0,1.64,0.81,1.64,1.66c0,0.22-0.05,0.31-0.25,0.35c-0.19,0.03-1.55,0.14-2.85,0.19    c0.01,1.48,0.86,2.09,1.63,2.09c0.44,0,0.85-0.17,1.24-0.55L70.71,21.66z M67.72,19.43c0.61,0,1.21-0.01,1.84-0.03    c0.2,0,0.26-0.07,0.26-0.22c0.01-0.57-0.36-1.09-0.96-1.09C68.36,18.09,67.88,18.55,67.72,19.43z"/></g><g><path class="st0" d="M72.92,18.84c0.33-0.55,0.8-1.16,1.32-1.16c0.37,0,0.63,0.28,0.63,0.55c0,0.22-0.14,0.44-0.35,0.53    c-0.13,0.05-0.23,0.04-0.29-0.02c-0.15-0.16-0.28-0.23-0.46-0.23c-0.28,0-0.63,0.33-0.87,0.94v2c0,0.72,0.05,0.79,0.89,0.85v0.28    h-2.51V22.3c0.68-0.07,0.75-0.13,0.75-0.85v-2.26c0-0.72-0.05-0.76-0.68-0.85V18.1c0.53-0.09,1.01-0.22,1.54-0.45v1.19H72.92z"/></g><g><path class="st0" d="M77.94,19.1c-0.21-0.64-0.59-1.08-1.12-1.08c-0.41,0-0.71,0.33-0.71,0.75c0,0.49,0.44,0.74,0.93,0.95    c0.82,0.34,1.37,0.73,1.37,1.48c0,0.99-0.93,1.51-1.8,1.51c-0.56,0-1.06-0.21-1.25-0.37c-0.08-0.15-0.17-0.89-0.17-1.29L75.47,21    c0.2,0.72,0.69,1.35,1.34,1.35c0.4,0,0.77-0.31,0.77-0.76c0-0.48-0.32-0.74-0.86-0.99c-0.65-0.31-1.36-0.67-1.36-1.51    c0-0.76,0.65-1.41,1.66-1.41c0.45,0,0.74,0.1,0.97,0.19c0.09,0.25,0.21,0.89,0.24,1.17L77.94,19.1z"/></g><g><path class="st0" d="M79.03,22.59V22.3c0.69-0.07,0.76-0.13,0.76-0.87v-2.25c0-0.68-0.03-0.72-0.69-0.83v-0.26    c0.56-0.09,1.07-0.23,1.55-0.43v3.76c0,0.74,0.08,0.81,0.77,0.87v0.28h-2.39V22.59z M79.61,16.18c0-0.33,0.26-0.57,0.56-0.57    c0.31,0,0.55,0.24,0.55,0.57c0,0.29-0.24,0.56-0.56,0.56C79.87,16.74,79.61,16.48,79.61,16.18z"/></g><g><path class="st0" d="M84.01,22.57c-0.19,0.1-0.36,0.14-0.46,0.14c-0.69,0-1.07-0.44-1.07-1.3v-3.17h-0.75l-0.04-0.11l0.29-0.32    h0.5v-0.8l0.71-0.72l0.15,0.02v1.49h1.23c0.1,0.11,0.07,0.35-0.07,0.43h-1.17v2.8c0,0.88,0.36,1.05,0.63,1.05s0.52-0.11,0.68-0.19    l0.1,0.28L84.01,22.57z"/></g><g><path class="st0" d="M90,18.09c-0.58,0.09-0.68,0.17-0.97,0.8c-0.27,0.58-0.61,1.48-1.36,3.28c-0.73,1.75-0.97,2.37-1.12,2.96    c-0.05,0.21-0.2,0.26-0.35,0.26c-0.31,0-0.62-0.26-0.62-0.52c0-0.17,0.1-0.27,0.28-0.39c0.34-0.22,0.56-0.49,0.81-0.97    c0.21-0.38,0.29-0.61,0.34-0.75c0.05-0.16,0.05-0.31-0.01-0.49c-0.44-1.24-0.93-2.56-1.25-3.34c-0.23-0.6-0.34-0.74-0.94-0.83    v-0.27h2.21v0.27c-0.5,0.09-0.56,0.2-0.41,0.6l0.99,2.74c0.31-0.74,0.77-2.03,1-2.72c0.13-0.41,0.05-0.53-0.57-0.62v-0.27H90    V18.09z"/></g><g><path class="st0" d="M52.65,31.38v-0.31c0.88-0.09,0.93-0.14,0.92-1.3l-0.03-4.45H53.5l-2.66,5.98h-0.22l-2.44-5.83h-0.02    L48,28.58c-0.04,0.89-0.04,1.37-0.03,1.81c0.02,0.52,0.28,0.6,1,0.68v0.31h-2.54v-0.31c0.63-0.08,0.85-0.2,0.93-0.65    c0.05-0.38,0.12-0.86,0.21-2l0.15-2.27c0.1-1.42,0.04-1.46-0.95-1.56v-0.31h1.79l2.49,5.46l2.52-5.46h1.85v0.31    c-0.96,0.09-1.04,0.11-1,1.23l0.11,3.95c0.03,1.16,0.07,1.21,1.01,1.3v0.31C55.54,31.38,52.65,31.38,52.65,31.38z"/></g><g><path class="st0" d="M59.34,31.51c-0.16,0-0.39-0.1-0.51-0.21c-0.14-0.15-0.21-0.31-0.26-0.49c-0.44,0.29-0.96,0.7-1.29,0.7    c-0.77,0-1.31-0.64-1.31-1.33c0-0.53,0.28-0.87,0.88-1.08c0.65-0.22,1.45-0.51,1.69-0.71v-0.2c0-0.79-0.37-1.23-0.92-1.23    c-0.22,0-0.38,0.09-0.49,0.22c-0.14,0.14-0.24,0.38-0.33,0.72c-0.04,0.17-0.16,0.25-0.32,0.25c-0.2,0-0.48-0.22-0.48-0.47    c0-0.16,0.14-0.28,0.35-0.44c0.31-0.22,1.01-0.64,1.64-0.76c0.33,0,0.65,0.1,0.89,0.29c0.38,0.32,0.49,0.76,0.49,1.33v2.03    c0,0.49,0.2,0.65,0.38,0.65c0.13,0,0.28-0.05,0.39-0.12l0.11,0.28L59.34,31.51z M58.55,28.76c-0.23,0.12-0.75,0.35-0.98,0.46    c-0.43,0.2-0.67,0.4-0.67,0.8c0,0.57,0.44,0.84,0.77,0.84c0.28-0.01,0.67-0.2,0.87-0.39L58.55,28.76L58.55,28.76z"/></g><g><path class="st0" d="M63.38,27.9c-0.21-0.64-0.59-1.08-1.12-1.08c-0.41,0-0.71,0.33-0.71,0.75c0,0.49,0.44,0.74,0.93,0.95    c0.82,0.34,1.37,0.73,1.37,1.48c0,0.99-0.93,1.51-1.8,1.51c-0.56,0-1.06-0.21-1.25-0.37c-0.08-0.15-0.17-0.89-0.17-1.29l0.28-0.05    c0.2,0.72,0.69,1.35,1.34,1.35c0.4,0,0.77-0.31,0.77-0.76c0-0.48-0.32-0.74-0.86-0.99c-0.65-0.31-1.36-0.67-1.36-1.51    c0-0.76,0.65-1.41,1.66-1.41c0.45,0,0.74,0.1,0.97,0.19c0.09,0.25,0.21,0.89,0.24,1.17L63.38,27.9z"/></g><g><path class="st0" d="M67.22,27.9c-0.21-0.64-0.59-1.08-1.12-1.08c-0.41,0-0.71,0.33-0.71,0.75c0,0.49,0.44,0.74,0.93,0.95    c0.82,0.34,1.37,0.73,1.37,1.48c0,0.99-0.93,1.51-1.8,1.51c-0.56,0-1.06-0.21-1.25-0.37c-0.08-0.15-0.17-0.89-0.17-1.29l0.28-0.05    c0.2,0.72,0.69,1.35,1.34,1.35c0.4,0,0.77-0.31,0.77-0.76c0-0.48-0.32-0.74-0.86-0.99c-0.65-0.31-1.36-0.67-1.36-1.51    c0-0.76,0.65-1.41,1.66-1.41c0.45,0,0.74,0.1,0.97,0.19c0.09,0.25,0.21,0.89,0.24,1.17L67.22,27.9z"/></g><g><path class="st0" d="M71.64,31.51c-0.16,0-0.39-0.1-0.51-0.21c-0.14-0.15-0.21-0.31-0.26-0.49c-0.44,0.29-0.96,0.7-1.29,0.7    c-0.77,0-1.31-0.64-1.31-1.33c0-0.53,0.28-0.87,0.88-1.08c0.65-0.22,1.45-0.51,1.69-0.71v-0.2c0-0.79-0.37-1.23-0.92-1.23    c-0.22,0-0.38,0.09-0.49,0.22c-0.14,0.14-0.24,0.38-0.33,0.72c-0.04,0.17-0.16,0.25-0.32,0.25c-0.2,0-0.48-0.22-0.48-0.47    c0-0.16,0.14-0.28,0.35-0.44c0.31-0.22,1.01-0.64,1.64-0.76c0.33,0,0.65,0.1,0.89,0.29c0.38,0.32,0.49,0.76,0.49,1.33v2.03    c0,0.49,0.2,0.65,0.38,0.65c0.13,0,0.28-0.05,0.39-0.12l0.11,0.28L71.64,31.51z M70.84,28.76c-0.23,0.12-0.75,0.35-0.98,0.46    c-0.43,0.2-0.67,0.4-0.67,0.8c0,0.57,0.44,0.84,0.77,0.84c0.28-0.01,0.67-0.2,0.87-0.39v-1.71H70.84z"/></g><g><path class="st0" d="M76.75,30.4c-0.48,0.63-1.21,1.11-1.85,1.11c-1.37,0-2.18-1.11-2.18-2.28c0-0.84,0.36-1.57,1.09-2.14    c0.57-0.44,1.22-0.61,1.65-0.61c0.44,0,0.8,0.14,0.97,0.28c0.14,0.12,0.17,0.22,0.17,0.34c0,0.23-0.24,0.47-0.36,0.47    c-0.05,0-0.11-0.03-0.21-0.12C75.71,27.14,75.32,27,74.94,27c-0.72,0-1.35,0.6-1.35,1.75c0,1.52,1.04,2.02,1.65,2.02    c0.47,0,0.83-0.13,1.33-0.6L76.75,30.4z"/></g><g><path class="st0" d="M79.86,31.38V31.1c0.63-0.07,0.72-0.13,0.72-0.84v-1.81c0-0.89-0.34-1.34-1.07-1.34    c-0.41,0-0.83,0.21-1.13,0.56v2.6c0,0.7,0.05,0.77,0.7,0.84v0.28h-2.31v-0.28c0.65-0.05,0.75-0.12,0.75-0.84v-5.2    c0-0.69-0.02-0.74-0.74-0.81v-0.25c0.52-0.08,1.18-0.25,1.6-0.38v3.67c0.38-0.39,0.97-0.8,1.56-0.8c0.88,0,1.51,0.56,1.51,1.87    v1.91c0,0.72,0.08,0.79,0.72,0.84v0.28h-2.31V31.38z"/></g><g><path class="st0" d="M87.55,31.12c-0.5,0.08-1.06,0.23-1.6,0.39l-0.07-0.07v-0.77c-0.25,0.19-0.5,0.38-0.81,0.57    c-0.32,0.19-0.55,0.27-0.84,0.27c-0.73,0-1.35-0.45-1.35-1.63v-2.14c0-0.6-0.04-0.64-0.67-0.76v-0.25c0.51-0.03,1.04-0.1,1.56-0.2    c-0.03,0.34-0.03,0.85-0.03,1.59v1.46c0,0.97,0.47,1.23,0.96,1.23c0.39,0,0.81-0.16,1.18-0.52v-2.54c0-0.62-0.07-0.67-0.85-0.77    v-0.25c0.57-0.03,1.13-0.08,1.71-0.2v3.64c0,0.55,0.09,0.62,0.5,0.64l0.31,0.02C87.55,30.83,87.55,31.12,87.55,31.12z"/><path class="st0" d="M90.8,27.9c-0.21-0.64-0.59-1.08-1.12-1.08c-0.41,0-0.71,0.33-0.71,0.75c0,0.49,0.44,0.74,0.93,0.95    c0.82,0.34,1.37,0.73,1.37,1.48c0,0.99-0.93,1.51-1.8,1.51c-0.56,0-1.06-0.21-1.25-0.37c-0.08-0.15-0.17-0.89-0.17-1.29l0.28-0.05    c0.2,0.72,0.69,1.35,1.34,1.35c0.4,0,0.77-0.31,0.77-0.76c0-0.48-0.32-0.74-0.86-0.99c-0.65-0.31-1.36-0.67-1.36-1.51    c0-0.76,0.65-1.41,1.66-1.41c0.45,0,0.74,0.1,0.97,0.19c0.09,0.25,0.21,0.89,0.24,1.17L90.8,27.9z"/></g><g><path class="st0" d="M95.79,30.45c-0.69,0.86-1.44,1.06-1.78,1.06c-1.34,0-2.13-1.09-2.13-2.32c0-0.75,0.27-1.42,0.72-1.91    c0.45-0.5,1.04-0.8,1.6-0.8c0.91,0,1.64,0.81,1.64,1.66c0,0.22-0.05,0.31-0.25,0.35c-0.19,0.03-1.55,0.14-2.85,0.19    c0.01,1.48,0.86,2.09,1.63,2.09c0.44,0,0.85-0.17,1.24-0.55L95.79,30.45z M92.8,28.22c0.61,0,1.21-0.01,1.84-0.03    c0.2,0,0.26-0.07,0.26-0.22c0.01-0.57-0.36-1.09-0.96-1.09C93.44,26.88,92.96,27.34,92.8,28.22z"/></g><g><path class="st0" d="M98.41,31.37c-0.19,0.1-0.36,0.14-0.46,0.14c-0.69,0-1.07-0.44-1.07-1.3v-3.17h-0.75l-0.04-0.11l0.29-0.32    h0.5v-0.8l0.71-0.72l0.15,0.02v1.49h1.23c0.1,0.11,0.07,0.35-0.07,0.43h-1.17v2.8c0,0.88,0.36,1.05,0.63,1.05s0.52-0.11,0.68-0.19    l0.1,0.28L98.41,31.37z"/></g><g><path class="st0" d="M101.54,31.37c-0.19,0.1-0.36,0.14-0.46,0.14c-0.69,0-1.07-0.44-1.07-1.3v-3.17h-0.75l-0.04-0.11l0.29-0.32    h0.5v-0.8l0.71-0.72l0.15,0.02v1.49h1.23c0.1,0.11,0.07,0.35-0.07,0.43h-1.17v2.8c0,0.88,0.36,1.05,0.63,1.05s0.52-0.11,0.68-0.19    l0.1,0.28L101.54,31.37z"/></g><g><path class="st0" d="M105.4,27.9c-0.21-0.64-0.59-1.08-1.12-1.08c-0.41,0-0.71,0.33-0.71,0.75c0,0.49,0.44,0.74,0.93,0.95    c0.82,0.34,1.37,0.73,1.37,1.48c0,0.99-0.93,1.51-1.8,1.51c-0.56,0-1.06-0.21-1.25-0.37c-0.08-0.15-0.17-0.89-0.17-1.29l0.28-0.05    c0.2,0.72,0.69,1.35,1.34,1.35c0.4,0,0.77-0.31,0.77-0.76c0-0.48-0.32-0.74-0.86-0.99c-0.65-0.31-1.36-0.67-1.36-1.51    c0-0.76,0.65-1.41,1.66-1.41c0.45,0,0.74,0.1,0.97,0.19c0.09,0.25,0.21,0.89,0.24,1.17L105.4,27.9z"/></g><g><path class="st0" d="M91.39,20.4c0-0.95,0.5-1.67,1.11-1.99c0.26-0.14,0.56-0.23,0.79-0.23c0.6,0,0.97,0.41,0.97,1.13    c0,0.63-0.27,1.34-0.78,1.76c-0.31,0.26-0.71,0.46-1.12,0.46C91.66,21.53,91.39,20.99,91.39,20.4z M92.84,21.2    c0.39-0.17,0.79-0.94,0.79-1.87c0-0.59-0.25-0.87-0.59-0.87c-0.11,0-0.2,0.03-0.28,0.07C92.49,18.65,92,19.24,92,20.36    c0,0.54,0.23,0.88,0.61,0.88C92.7,21.24,92.77,21.23,92.84,21.2z"/><path class="st0" d="M95.15,18.3c0.11-0.55,0.28-1.08,0.61-1.45s0.75-0.58,1.04-0.58c0.25,0,0.44,0.18,0.44,0.31    c0,0.11-0.1,0.24-0.18,0.3c-0.06,0.04-0.13,0.05-0.18-0.01c-0.15-0.16-0.31-0.25-0.46-0.25c-0.27,0-0.49,0.33-0.71,1.68h0.82    l-0.15,0.23l-0.73,0.07c-0.13,0.8-0.21,1.24-0.37,2.05c-0.25,1.25-0.52,1.8-0.92,2.21c-0.32,0.34-0.63,0.46-0.82,0.46    c-0.21,0-0.46-0.15-0.45-0.31c0-0.09,0.09-0.22,0.2-0.31c0.06-0.05,0.09-0.04,0.14,0c0.12,0.11,0.33,0.18,0.46,0.18    c0.12,0,0.24-0.06,0.31-0.15c0.09-0.11,0.27-0.41,0.51-1.83c0.17-1,0.27-1.61,0.39-2.33h-0.6l-0.02-0.08l0.22-0.2h0.45V18.3z"/></g><g><path class="st0" d="M49.89,39.11v-0.25c0.55-0.07,0.63-0.14,0.52-0.48s-0.29-0.82-0.48-1.35h-1.87c-0.14,0.4-0.27,0.76-0.39,1.13    c-0.19,0.55-0.11,0.64,0.54,0.7v0.25H46.3v-0.25c0.55-0.08,0.68-0.13,0.98-0.91l1.82-4.61l0.27-0.08c0.54,1.51,1.13,3.18,1.7,4.71    c0.28,0.76,0.4,0.83,0.97,0.89v0.25H49.89z M49.03,34.41h-0.02c-0.28,0.76-0.56,1.52-0.83,2.24h1.62L49.03,34.41z"/></g><g><path class="st0" d="M57.15,39.11v-0.23c0.52-0.05,0.62-0.09,0.62-0.71V36.7c0-0.62-0.22-1.02-0.77-1.02    c-0.32,0-0.65,0.18-0.98,0.46c0.02,0.11,0.03,0.2,0.03,0.37v1.71c0,0.55,0.08,0.61,0.56,0.66v0.23h-1.88v-0.23    c0.54-0.05,0.62-0.1,0.62-0.68v-1.51c0-0.65-0.23-1.01-0.76-1.01c-0.35,0-0.69,0.24-0.96,0.46v2.07c0,0.57,0.07,0.62,0.5,0.68    v0.23h-1.85v-0.23c0.58-0.05,0.66-0.11,0.66-0.68v-1.82c0-0.56-0.03-0.61-0.54-0.69v-0.2c0.39-0.07,0.83-0.18,1.22-0.36v0.71    c0.18-0.12,0.38-0.28,0.64-0.45c0.23-0.14,0.44-0.24,0.72-0.24c0.42,0,0.8,0.26,0.98,0.72c0.25-0.19,0.51-0.36,0.73-0.49    c0.18-0.12,0.41-0.23,0.66-0.23c0.69,0,1.12,0.48,1.12,1.34v1.7c0,0.59,0.07,0.62,0.57,0.68v0.23    C59.04,39.11,57.15,39.11,57.15,39.11z"/></g><g><path class="st0" d="M61.79,39.11v-0.23c0.51-0.05,0.58-0.11,0.58-0.68v-1.46c0-0.72-0.27-1.08-0.86-1.08    c-0.33,0-0.67,0.17-0.91,0.45v2.09c0,0.56,0.04,0.62,0.56,0.68v0.23H59.3v-0.23c0.53-0.04,0.61-0.1,0.61-0.68v-4.19    c0-0.55-0.02-0.6-0.6-0.65v-0.2c0.42-0.06,0.95-0.2,1.29-0.31v2.95c0.31-0.32,0.78-0.64,1.26-0.64c0.71,0,1.21,0.45,1.21,1.5v1.54    c0,0.58,0.06,0.63,0.58,0.68v0.23H61.79z"/></g><g><path class="st0" d="M67.08,38.36c-0.55,0.69-1.16,0.85-1.43,0.85c-1.08,0-1.71-0.88-1.71-1.87c0-0.61,0.22-1.14,0.58-1.54    s0.83-0.64,1.29-0.64c0.73,0,1.32,0.65,1.32,1.34c0,0.18-0.04,0.25-0.2,0.28c-0.15,0.03-1.25,0.11-2.29,0.15    c0.01,1.2,0.69,1.69,1.31,1.69c0.35,0,0.69-0.14,1-0.44L67.08,38.36z M64.67,36.57c0.49,0,0.98-0.01,1.49-0.03    c0.16,0,0.21-0.05,0.21-0.18c0.01-0.46-0.29-0.88-0.77-0.88C65.19,35.49,64.8,35.86,64.67,36.57z"/></g><g><path class="st0" d="M68.86,36.09c0.26-0.44,0.64-0.93,1.06-0.93c0.3,0,0.51,0.23,0.51,0.44c0,0.18-0.11,0.35-0.28,0.43    c-0.11,0.04-0.18,0.04-0.24-0.02c-0.12-0.13-0.23-0.18-0.37-0.18c-0.23,0-0.51,0.26-0.7,0.76v1.61c0,0.58,0.04,0.63,0.72,0.69    v0.23h-2.02v-0.23c0.54-0.05,0.61-0.11,0.61-0.69v-1.82c0-0.58-0.04-0.62-0.54-0.69V35.5c0.43-0.07,0.82-0.18,1.24-0.36    L68.86,36.09L68.86,36.09L68.86,36.09z"/></g><g><path class="st0" d="M72.86,36.3c-0.17-0.52-0.47-0.87-0.91-0.87c-0.33,0-0.57,0.26-0.57,0.61c0,0.4,0.35,0.6,0.75,0.76    c0.66,0.27,1.11,0.59,1.11,1.2c0,0.8-0.75,1.21-1.45,1.21c-0.45,0-0.85-0.17-1.01-0.3c-0.06-0.12-0.14-0.72-0.14-1.04l0.23-0.04    c0.16,0.58,0.55,1.09,1.08,1.09c0.33,0,0.62-0.25,0.62-0.62c0-0.39-0.25-0.6-0.69-0.8c-0.53-0.25-1.1-0.54-1.1-1.21    c0-0.62,0.53-1.13,1.34-1.13c0.36,0,0.6,0.08,0.78,0.15c0.07,0.2,0.17,0.72,0.19,0.94L72.86,36.3z"/></g><g><path class="st0" d="M75.31,39.1c-0.15,0.08-0.29,0.11-0.37,0.11c-0.55,0-0.86-0.35-0.86-1.05V35.6h-0.61l-0.04-0.09l0.24-0.25    h0.4v-0.64l0.57-0.58l0.12,0.02v1.2h0.99c0.08,0.09,0.05,0.28-0.05,0.34h-0.94v2.26c0,0.71,0.29,0.84,0.51,0.84    s0.42-0.09,0.54-0.15l0.08,0.23L75.31,39.1z"/></g></g><path class="st1" d="M42.32,38.93H33.5l0.08-9.78c-1.2,1.83-4.59,6.89-4.59,6.89l-0.63,0.01c0,0-3.41-5.07-4.61-6.89l0.08,9.78  h-8.82l-0.02-5.76h1.19l-0.09-11.43h-1.16l-0.03-5.97h8.19l5.57,9.03l5.57-9.03h8.19l-0.03,5.97h-1.16l-0.09,11.43h1.19L42.32,38.93  z"/><path class="st2" d="M34.85,37.59h6.13l0.01-3.08H39.8l0.11-14.11h1.15l0.02-3.28h-6.09l-6.32,10.25l-6.32-10.25h-6.09l0.02,3.28  h1.15l0.11,14.11h-1.19l0.01,3.08h6.13l-0.1-13l1.25,1.92c1.3,2,2.99,4.55,5.04,7.6c2.04-3.05,3.74-5.6,5.04-7.6l1.25-1.92  L34.85,37.59z"/></svg>